<?xml version="1.0" encoding="UTF-8"?>
<!DOCTYPE svg PUBLIC "-//W3C//DTD SVG 1.1//EN" "http://www.w3.org/Graphics/SVG/1.1/DTD/svg11.dtd">
<svg xmlns="http://www.w3.org/2000/svg" version="1.1" width="385px" height="387px" style="shape-rendering:geometricPrecision; text-rendering:geometricPrecision; image-rendering:optimizeQuality; fill-rule:evenodd; clip-rule:evenodd" xmlns:xlink="http://www.w3.org/1999/xlink">
<g><path style="opacity:0.999" fill="#014490" d="M 174.5,-0.5 C 186.833,-0.5 199.167,-0.5 211.5,-0.5C 290.153,10.3106 344.986,52.3106 376,125.5C 379.391,135.487 382.225,145.487 384.5,155.5C 384.5,181.167 384.5,206.833 384.5,232.5C 368.293,301.998 326.959,350.165 260.5,377C 249.696,380.105 239.029,383.272 228.5,386.5C 204.833,386.5 181.167,386.5 157.5,386.5C 79.2169,368.054 28.0502,320.387 4,243.5C 2.79547,235.974 1.29547,228.641 -0.5,221.5C -0.5,202.833 -0.5,184.167 -0.5,165.5C 14.4599,86.3579 60.1266,33.5245 136.5,7C 149.084,3.38276 161.751,0.88276 174.5,-0.5 Z"/></g>
<g><path style="opacity:1" fill="#acc2d9" d="M 219.5,145.5 C 197.602,144.861 175.935,145.528 154.5,147.5C 154.5,146.5 154.5,145.5 154.5,144.5C 176.34,144.169 198.006,144.503 219.5,145.5 Z"/></g>
<g><path style="opacity:1" fill="#e3062d" d="M 25.5,144.5 C 59.1683,144.333 92.835,144.5 126.5,145C 128.333,145.5 129.5,146.667 130,148.5C 130.667,152.5 130.667,156.5 130,160.5C 129.5,162.333 128.333,163.5 126.5,164C 92.8333,164.667 59.1667,164.667 25.5,164C 22.0801,161.847 20.7468,158.681 21.5,154.5C 20.767,150.177 22.1003,146.844 25.5,144.5 Z"/></g>
<g><path style="opacity:1" fill="#fcfdfd" d="M 219.5,145.5 C 220.833,151.5 220.833,157.5 219.5,163.5C 212.167,163.5 204.833,163.5 197.5,163.5C 197.5,187.167 197.5,210.833 197.5,234.5C 190.833,235.833 184.167,235.833 177.5,234.5C 177.5,210.833 177.5,187.167 177.5,163.5C 170.167,163.5 162.833,163.5 155.5,163.5C 154.512,158.36 154.179,153.026 154.5,147.5C 175.935,145.528 197.602,144.861 219.5,145.5 Z"/></g>
<g><path style="opacity:1" fill="#f7f9fb" d="M 235.5,144.5 C 241.893,144.207 248.227,144.54 254.5,145.5C 254.833,160.333 255.167,175.167 255.5,190C 255.492,205.221 254.825,220.221 253.5,235C 247.251,235.809 241.084,235.642 235,234.5C 234.175,204.428 234.342,174.428 235.5,144.5 Z"/></g>
<g><path style="opacity:1" fill="#fafbfc" d="M 343.5,234.5 C 343.833,217.154 343.5,199.821 342.5,182.5C 341.571,183.689 341.238,185.022 341.5,186.5C 337.019,197.469 332.519,208.469 328,219.5C 322.25,220.641 316.416,220.807 310.5,220C 310,219.5 309.5,219 309,218.5C 303.867,207.315 299.034,195.982 294.5,184.5C 294.217,183.711 293.717,183.044 293,182.5C 292.5,199.83 292.333,217.163 292.5,234.5C 292.167,234.5 291.833,234.5 291.5,234.5C 285.575,234.808 279.741,234.475 274,233.5C 273.333,204.5 273.333,175.5 274,146.5C 280.41,145.522 286.91,145.189 293.5,145.5C 295.39,145.297 296.89,145.963 298,147.5C 305.538,164.581 312.538,181.915 319,199.5C 326.239,181.968 333.406,164.302 340.5,146.5C 341.025,145.808 341.692,145.308 342.5,145C 349.869,144.274 357.202,144.441 364.5,145.5C 364.833,175.174 364.5,204.841 363.5,234.5C 356.803,235.83 350.137,235.83 343.5,234.5 Z"/></g>
<g><path style="opacity:1" fill="#dbe2ed" d="M 293.5,145.5 C 286.91,145.189 280.41,145.522 274,146.5C 273.333,175.5 273.333,204.5 274,233.5C 279.741,234.475 285.575,234.808 291.5,234.5C 285.432,235.826 279.266,235.826 273,234.5C 272.333,204.833 272.333,175.167 273,145.5C 279.932,144.173 286.765,144.173 293.5,145.5 Z"/></g>
<g><path style="opacity:1" fill="#879fc4" d="M 219.5,163.5 C 212.687,164.491 205.687,164.825 198.5,164.5C 198.831,188.006 198.498,211.339 197.5,234.5C 197.5,210.833 197.5,187.167 197.5,163.5C 204.833,163.5 212.167,163.5 219.5,163.5 Z"/></g>
<g><path style="opacity:1" fill="#7c9bc3" d="M 155.5,163.5 C 162.833,163.5 170.167,163.5 177.5,163.5C 177.5,187.167 177.5,210.833 177.5,234.5C 176.502,211.339 176.169,188.006 176.5,164.5C 169.313,164.825 162.313,164.491 155.5,163.5 Z"/></g>
<g><path style="opacity:1" fill="#e7022a" d="M 24.5,180.5 C 37.8333,180.5 51.1667,180.5 64.5,180.5C 64.5,186.833 64.5,193.167 64.5,199.5C 51.1625,199.667 37.8292,199.5 24.5,199C 21.9874,196.604 20.9874,193.604 21.5,190C 21.0093,186.246 22.0093,183.079 24.5,180.5 Z"/></g>
<g><path style="opacity:1" fill="#e7012a" d="M 87.5,180.5 C 100.837,180.333 114.171,180.5 127.5,181C 129.995,183.219 130.995,186.052 130.5,189.5C 130.941,193.18 129.941,196.347 127.5,199C 114.171,199.5 100.837,199.667 87.5,199.5C 87.5,193.167 87.5,186.833 87.5,180.5 Z"/></g>
<g><path style="opacity:1" fill="#92a3c4" d="M 294.5,184.5 C 293.833,201.167 293.167,217.833 292.5,234.5C 292.333,217.163 292.5,199.83 293,182.5C 293.717,183.044 294.217,183.711 294.5,184.5 Z"/></g>
<g><path style="opacity:1" fill="#6b88b6" d="M 343.5,234.5 C 342.833,218.5 342.167,202.5 341.5,186.5C 341.238,185.022 341.571,183.689 342.5,182.5C 343.5,199.821 343.833,217.154 343.5,234.5 Z"/></g>
<g><path style="opacity:1" fill="#a32256" d="M 25.5,216.5 C 38.6562,215.504 51.9895,215.171 65.5,215.5C 65.5,222.167 65.5,228.833 65.5,235.5C 51.9895,235.829 38.6562,235.496 25.5,234.5C 38.5,234.5 51.5,234.5 64.5,234.5C 64.5,228.5 64.5,222.5 64.5,216.5C 51.5,216.5 38.5,216.5 25.5,216.5 Z"/></g>
<g><path style="opacity:1" fill="#ea0129" d="M 25.5,216.5 C 38.5,216.5 51.5,216.5 64.5,216.5C 64.5,222.5 64.5,228.5 64.5,234.5C 51.5,234.5 38.5,234.5 25.5,234.5C 23.5891,234.426 22.4224,233.426 22,231.5C 21.3333,227.5 21.3333,223.5 22,219.5C 22.4224,217.574 23.5891,216.574 25.5,216.5 Z"/></g>
<g><path style="opacity:1" fill="#e7042b" d="M 126.5,234.5 C 113.5,234.5 100.5,234.5 87.5,234.5C 87.5,228.5 87.5,222.5 87.5,216.5C 100.327,215.34 113.327,215.173 126.5,216C 129.92,218.153 131.253,221.319 130.5,225.5C 130.333,227.5 130.167,229.5 130,231.5C 129.578,233.426 128.411,234.426 126.5,234.5 Z"/></g>
<g><path style="opacity:1" fill="#aa1f51" d="M 87.5,216.5 C 87.5,222.5 87.5,228.5 87.5,234.5C 100.5,234.5 113.5,234.5 126.5,234.5C 113.344,235.496 100.01,235.829 86.5,235.5C 86.1765,228.978 86.5098,222.645 87.5,216.5 Z"/></g>
</svg>
